<svg width="60" height="60" viewBox="0 0 60 60" fill="none" xmlns="http://www.w3.org/2000/svg">
<rect width="60" height="60" rx="8" fill="#D1E5FF"/>
<path opacity="0.5" d="M18 27.3334C18 22.3051 18 19.7909 19.5621 18.2288C21.1242 16.6667 23.6384 16.6667 28.6667 16.6667H31.3333C36.3616 16.6667 38.8758 16.6667 40.4379 18.2288C42 19.7909 42 22.3051 42 27.3334V32.6667C42 37.6951 42 40.2092 40.4379 41.7713C38.8758 43.3334 36.3616 43.3334 31.3333 43.3334H28.6667C23.6384 43.3334 21.1242 43.3334 19.5621 41.7713C18 40.2092 18 37.6951 18 32.6667V27.3334Z" fill="#2563EB"/>
<path fill-rule="evenodd" clip-rule="evenodd" d="M23.666 30C23.666 29.4477 24.1137 29 24.666 29H35.3327C35.885 29 36.3327 29.4477 36.3327 30C36.3327 30.5523 35.885 31 35.3327 31H24.666C24.1137 31 23.666 30.5523 23.666 30Z" fill="#2563EB"/>
<path fill-rule="evenodd" clip-rule="evenodd" d="M23.666 24.6667C23.666 24.1145 24.1137 23.6667 24.666 23.6667H35.3327C35.885 23.6667 36.3327 24.1145 36.3327 24.6667C36.3327 25.219 35.885 25.6667 35.3327 25.6667H24.666C24.1137 25.6667 23.666 25.219 23.666 24.6667Z" fill="#2563EB"/>
<path fill-rule="evenodd" clip-rule="evenodd" d="M23.666 35.3333C23.666 34.781 24.1137 34.3333 24.666 34.3333H31.3327C31.885 34.3333 32.3327 34.781 32.3327 35.3333C32.3327 35.8855 31.885 36.3333 31.3327 36.3333H24.666C24.1137 36.3333 23.666 35.8855 23.666 35.3333Z" fill="#2563EB"/>
</svg>
