<svg width="60" height="60" viewBox="0 0 60 60" fill="none" xmlns="http://www.w3.org/2000/svg">
<rect width="60" height="60" rx="8" fill="#BEFFD2"/>
<path opacity="0.5" d="M29.9996 35.3334C22.3196 35.3334 20.9591 27.6795 20.7181 21.6087C20.6511 19.92 20.6175 19.0757 21.2518 18.2945C21.8861 17.5133 22.6453 17.3852 24.1636 17.1291C25.6623 16.8762 27.6215 16.6667 29.9996 16.6667C32.3776 16.6667 34.3368 16.8762 35.8355 17.1291C37.3538 17.3852 38.113 17.5133 38.7473 18.2945C39.3816 19.0757 39.348 19.92 39.281 21.6087C39.04 27.6795 37.6795 35.3334 29.9996 35.3334Z" fill="#16A34A"/>
<path d="M37.5198 30.5628L41.2752 28.4764C42.2784 27.919 42.7801 27.6404 43.0563 27.1709C43.3326 26.7014 43.3326 26.1276 43.3326 24.9799L43.3326 24.8832C43.3326 23.4917 43.3327 22.796 42.9551 22.2722C42.5776 21.7484 41.9176 21.5284 40.5975 21.0884L39.3327 20.6667L39.3101 20.7796C39.3039 21.032 39.293 21.3068 39.281 21.6087C39.1632 24.5745 38.7783 27.9183 37.5198 30.5628Z" fill="#16A34A"/>
<path d="M20.7181 21.6087C20.8359 24.5747 21.2208 27.9186 22.4795 30.5631L18.7234 28.4764C17.7202 27.919 17.2186 27.6404 16.9423 27.1709C16.6661 26.7014 16.6661 26.1276 16.666 24.9799L16.666 24.8832C16.666 23.4917 16.666 22.796 17.0435 22.2722C17.421 21.7484 18.081 21.5284 19.4011 21.0884L20.6659 20.6667L20.6891 20.7824C20.6953 21.034 20.7062 21.3079 20.7181 21.6087Z" fill="#16A34A"/>
<path fill-rule="evenodd" clip-rule="evenodd" d="M21 43.3333C21 42.781 21.4477 42.3333 22 42.3333H38C38.5523 42.3333 39 42.781 39 43.3333C39 43.8855 38.5523 44.3333 38 44.3333H22C21.4477 44.3333 21 43.8855 21 43.3333Z" fill="#16A34A"/>
<path opacity="0.5" d="M34.6109 42.3334H25.3906L25.7864 40.0003C25.911 39.3771 26.4582 38.9285 27.0938 38.9285H32.9077C33.5433 38.9285 34.0905 39.3771 34.2151 40.0003L34.6109 42.3334Z" fill="#16A34A"/>
<path d="M30.0002 35.3336C29.6541 35.3336 29.3209 35.3181 29 35.2878V38.9285H31V35.2879C30.6792 35.3181 30.3461 35.3336 30.0002 35.3336Z" fill="#16A34A"/>
<path d="M28.8613 22.0301C29.3679 21.1212 29.6213 20.6667 30 20.6667C30.3787 20.6667 30.6321 21.1212 31.1387 22.0301L31.2698 22.2652C31.4138 22.5235 31.4858 22.6527 31.598 22.7379C31.7103 22.8231 31.8501 22.8547 32.1296 22.918L32.3842 22.9756C33.3681 23.1982 33.86 23.3095 33.977 23.6858C34.0941 24.0622 33.7587 24.4544 33.088 25.2387L32.9144 25.4416C32.7238 25.6645 32.6285 25.776 32.5857 25.9138C32.5428 26.0517 32.5572 26.2004 32.586 26.4978L32.6122 26.7685C32.7136 27.815 32.7644 28.3382 32.4579 28.5708C32.1515 28.8034 31.6909 28.5914 30.7697 28.1672L30.5314 28.0575C30.2696 27.937 30.1387 27.8767 30 27.8767C29.8613 27.8767 29.7304 27.937 29.4686 28.0575L29.2303 28.1672C28.3091 28.5914 27.8485 28.8034 27.5421 28.5708C27.2356 28.3382 27.2864 27.815 27.3878 26.7685L27.414 26.4978C27.4428 26.2004 27.4572 26.0517 27.4143 25.9138C27.3715 25.776 27.2762 25.6645 27.0856 25.4416L26.912 25.2387C26.2413 24.4544 25.9059 24.0622 26.023 23.6858C26.14 23.3095 26.6319 23.1982 27.6158 22.9756L27.8704 22.918C28.1499 22.8547 28.2897 22.8231 28.402 22.7379C28.5142 22.6527 28.5862 22.5235 28.7302 22.2652L28.8613 22.0301Z" fill="#16A34A"/>
</svg>
