<svg width="60" height="60" viewBox="0 0 60 60" fill="none" xmlns="http://www.w3.org/2000/svg">
<rect width="60" height="60" rx="8" fill="#FFE0B9"/>
<path opacity="0.5" d="M29.9993 43.3334C37.3631 43.3334 43.3327 37.3639 43.3327 30.0001C43.3327 22.6363 37.3631 16.6667 29.9993 16.6667C22.6356 16.6667 16.666 22.6363 16.666 30.0001C16.666 37.3639 22.6356 43.3334 29.9993 43.3334Z" fill="#EA580C"/>
<path fill-rule="evenodd" clip-rule="evenodd" d="M30 23.6667C30.5523 23.6667 31 24.1145 31 24.6667V29.5859L34.0404 32.6263C34.431 33.0168 34.431 33.65 34.0404 34.0405C33.6499 34.431 33.0168 34.431 32.6262 34.0405L29.2929 30.7072C29.1054 30.5197 29 30.2653 29 30.0001V24.6667C29 24.1145 29.4477 23.6667 30 23.6667Z" fill="#EA580C"/>
</svg>
