<svg width="60" height="60" viewBox="0 0 60 60" fill="none" xmlns="http://www.w3.org/2000/svg">
<rect width="60" height="60" rx="30" fill="#2B3789"/>
<path d="M29.7113 32.7053C30.441 32.8096 31.2668 32.5943 31.5793 32.3252C31.9703 31.9874 31.8738 30.9474 31.634 30.3105C31.1541 30.4148 30.5864 30.4791 30.0231 30.4791C29.594 30.4791 29.1718 30.4404 28.7953 30.3583C28.7942 30.3611 28.7962 30.3639 28.7949 30.3666C28.5559 30.8713 28.5184 31.7518 28.8418 32.2572C29.0285 32.5498 29.4176 32.6623 29.7113 32.7053Z" fill="white"/>
<path d="M41.4168 38.7093C41.4168 35.8405 41.4176 28.1155 41.441 26.6034C41.4684 24.9862 41.1941 23.8921 39.7715 23.6761C38.2004 23.4394 36.0738 24.4089 34.6684 25.0519C34.4401 25.1585 33.941 25.4695 33.4471 25.7785C33.3547 26.0029 33.2838 26.2424 33.2527 26.5191C33.2402 26.6308 33.2371 26.7327 33.2332 26.8273C33.2222 27.1313 33.2067 27.4214 32.9178 27.6622C33.1701 28.1411 33.2697 28.7133 33.1566 29.1765C33.0676 29.5394 32.859 29.8234 32.5527 29.9984C32.4156 30.0766 32.233 30.1477 32.0236 30.2109C32.2631 30.8876 32.4266 32.1216 31.8402 32.6277C31.5027 32.9188 30.8598 33.1027 30.2246 33.124V40.9932C33.233 38.9177 36.8039 38.1854 41.4168 38.7093ZM32.3184 32.5308C34.5121 31.6347 36.923 31.1612 39.2934 31.1612C39.4184 31.1612 39.534 31.237 39.534 31.3616C39.534 31.4722 39.4441 31.5612 39.334 31.5612C39.3426 31.5652 39.3074 31.5616 39.2934 31.5612C36.9746 31.5612 34.616 32.0241 32.4699 32.9011C32.4449 32.9112 32.4191 32.9159 32.3941 32.9159C32.3152 32.9159 32.241 32.8691 32.209 32.7917C32.1676 32.6894 32.216 32.5726 32.3184 32.5308ZM32.2059 35.6894C32.1684 35.5855 32.2223 35.4706 32.3262 35.4331C34.5184 34.6366 36.927 34.2163 39.2949 34.2163C39.4168 34.2128 39.534 34.2929 39.534 34.4167C39.534 34.5269 39.4441 34.6163 39.334 34.6163C39.3355 34.6136 39.3082 34.6163 39.2949 34.6163C36.973 34.6163 34.6113 35.0284 32.4621 35.8089C32.4402 35.8171 32.4168 35.821 32.3941 35.821C32.3121 35.821 32.2355 35.7706 32.2059 35.6894ZM32.5496 38.2757C32.466 38.2757 32.3879 38.2226 32.3598 38.139C32.3246 38.0343 32.3816 37.921 32.4863 37.8859C34.634 37.1698 36.8832 36.7687 39.173 36.6925H39.1793C39.2871 36.6925 39.3754 36.7777 39.3793 36.8859C39.3832 36.9964 39.2965 37.0886 39.1855 37.0925C36.9355 37.1671 34.7238 37.5616 32.6129 38.2655C32.5918 38.2726 32.5707 38.2757 32.5496 38.2757Z" fill="white"/>
<path d="M32.3559 29.6509C32.5676 29.5302 32.7067 29.3388 32.7692 29.0814C32.8581 28.7194 32.7754 28.2521 32.5754 27.8633C32.0027 28.1096 31.0581 28.2126 30.152 28.2126C30.1184 28.2126 30.0862 28.2107 30.0528 28.2104C30.0489 28.2106 30.0465 28.2146 30.0426 28.2146C30.0382 28.2146 30.0357 28.2103 30.0314 28.21C29.3332 28.203 28.6717 28.139 28.245 28.0345C28.0915 27.997 27.967 27.9468 27.8542 27.8915C27.5883 28.3865 27.5674 29.116 28.0106 29.5744C28.7278 30.3166 31.4465 30.1708 32.3559 29.6509Z" fill="white"/>
<path d="M18.5634 36.2881C18.5805 37.4397 18.5891 37.9987 18.5805 38.2823L18.9196 38.2889C20.7938 38.3229 22.7313 38.3581 24.5001 38.7471C26.0532 39.095 28.3298 39.6167 29.8251 40.8987V33.1126C29.7682 33.1077 29.7093 33.1088 29.654 33.1006C29.1149 33.0217 28.7173 32.8046 28.5048 32.4725C28.104 31.8452 28.147 30.8717 28.4138 30.2548C28.1294 30.1571 27.8893 30.0253 27.722 29.8522C27.198 29.3097 27.1259 28.3675 27.5229 27.6693C27.2388 27.3964 27.158 27.0371 27.0813 26.6846C27.0313 26.4577 26.9806 26.2229 26.8735 25.9979C26.6754 25.5809 26.3728 25.2118 26.0489 24.8611C25.5642 24.589 25.1282 24.3893 24.6806 24.2354L24.229 24.0928C21.9985 23.3889 20.3454 23.4276 19.1774 24.2124C18.3884 24.7381 18.5149 33.1292 18.5634 36.2881ZM28.1391 35.5921C28.104 35.6635 28.0329 35.7049 27.9587 35.7049C27.929 35.7049 27.9001 35.6987 27.872 35.685C25.7165 34.6444 23.3649 34.1139 21.0196 34.1038C20.9095 34.1038 20.8188 34.0147 20.8188 33.9042C20.8188 33.7803 20.9384 33.703 21.0602 33.7038C23.4345 33.7038 25.8485 34.2639 28.0454 35.3249C28.1454 35.3729 28.1868 35.4924 28.1391 35.5921ZM21.0462 30.8249C23.4212 30.8249 25.836 31.385 28.0313 32.4464C28.1313 32.4944 28.1727 32.6139 28.1243 32.7135C28.0899 32.785 28.0188 32.8264 27.9446 32.8264C27.9149 32.8264 27.886 32.8202 27.8579 32.8065C25.7032 31.7655 23.3407 31.2327 21.0056 31.2249C20.8954 31.2249 20.8048 31.1358 20.8048 31.0253C20.8048 30.901 20.9243 30.8253 21.0462 30.8249ZM20.9313 36.4026C23.2274 36.5038 25.4829 37.0389 27.6345 37.9928C27.7352 38.0378 27.7806 38.1557 27.736 38.2569C27.7032 38.3315 27.6298 38.3756 27.5532 38.3756C27.5259 38.3756 27.4985 38.3702 27.472 38.3585C25.3665 37.4249 23.1602 36.9014 20.9141 36.8026C20.8032 36.7975 20.7181 36.7042 20.7227 36.5936C20.7274 36.4835 20.8259 36.401 20.9313 36.4026Z" fill="white"/>
<path d="M29.716 43.4024C29.9387 43.5547 30.2066 43.5743 30.4207 43.4497C33.891 41.5325 38.0848 40.793 43.2496 41.1915C43.4269 41.2024 43.6121 41.1446 43.7449 41.0223C43.8746 40.9028 43.9457 40.7411 43.9457 40.5665C43.9457 37.3145 43.9457 30.5481 43.9777 29.1458C43.9996 28.0575 43.8519 27.4469 43.4832 27.1051C43.1637 26.8095 42.6287 26.7039 41.8396 26.7575C41.8177 28.6844 41.8176 36.3537 41.8176 38.9344C41.8176 38.9918 41.7933 39.0461 41.7504 39.084C41.7074 39.1219 41.6504 39.1411 41.5933 39.1329C36.8246 38.5516 33.1902 39.3106 30.1598 41.5204C30.1246 41.5461 30.0832 41.5586 30.0418 41.5586C29.9887 41.5586 29.9363 41.5379 29.8973 41.4973C28.5137 40.0563 26.0465 39.5036 24.4137 39.1379C22.6848 38.7575 20.7668 38.7227 18.9121 38.6891L18.3582 38.6786C18.248 38.6762 18.1613 38.5864 18.1621 38.4766C18.1621 38.452 18.1668 38.4286 18.1754 38.4071C18.1926 38.2325 18.1793 37.3313 18.1637 36.2942C18.0988 32.0154 18.106 28.6672 18.2869 26.5195C18.2369 26.5233 18.1855 26.5277 18.1363 26.5313C17.259 26.5942 16.6254 26.6391 16.2848 27.5188C16.1441 27.8649 16.1058 28.2305 16.073 28.6383C16.0183 29.4286 16.0168 37.329 16.0254 40.1977C16.0254 40.5407 16.3066 40.8243 16.6535 40.8305C18.9082 40.8715 21.1957 40.9133 23.2848 41.2895C25.6137 41.7137 28.0277 42.2262 29.716 43.4024Z" fill="white"/>
<path d="M25.9664 24.1934C26.4422 24.6848 26.9344 25.193 27.2351 25.8262C27.3617 26.093 27.4203 26.3617 27.4726 26.5992C27.5883 27.1301 27.6648 27.4809 28.3398 27.6461C28.7062 27.7354 29.2537 27.7935 29.8422 27.809V27.1824C29.8422 27.1651 29.8564 27.1542 29.8605 27.1382C29.8642 27.1218 29.8567 27.1051 29.8648 27.0895C29.867 27.0854 29.8722 27.0852 29.8746 27.0813C29.8004 25.6026 29.5969 24.1119 28.2484 22.2602C28.1836 22.1711 28.2031 22.0461 28.2922 21.9809C28.3828 21.9152 28.507 21.9348 28.5719 22.025C29.1912 22.8756 29.5715 23.6496 29.8195 24.3835C30.5503 23.3745 31.6494 22.4846 32.9859 21.8672C33.0836 21.8199 33.2047 21.8641 33.2508 21.9648C33.2976 22.0652 33.2539 22.184 33.1531 22.2305C31.7742 22.8679 30.6441 23.7975 29.965 24.8496C30.182 25.66 30.2469 26.4256 30.282 27.1895C30.2838 27.2314 30.2629 27.266 30.2422 27.2992V27.8102C31.0909 27.804 31.9588 27.7091 32.4531 27.4844C32.8156 27.3188 32.8211 27.1707 32.8351 26.8125C32.8383 26.709 32.8429 26.5969 32.857 26.4746C32.8931 26.1504 32.9792 25.866 33.0924 25.5995C33.0996 25.5711 33.1071 25.5444 33.1247 25.5224C33.3088 25.1243 33.5748 24.7785 33.9554 24.4813L33.9562 24.4809C35.3695 23.3781 35.9351 21.9191 35.55 20.3727C35.0765 18.4715 33.282 16.934 31.0836 16.5465C30.7867 16.4941 30.4828 16.4688 30.1765 16.4688C28.9851 16.4688 27.7562 16.8559 26.7547 17.568C25.6226 18.3727 24.8883 19.5023 24.6867 20.748C24.4976 21.9129 24.8945 23.0762 25.8031 24.0238L25.9664 24.1934Z" fill="white"/>
</svg>
