<svg width="60" height="60" viewBox="0 0 60 60" fill="none" xmlns="http://www.w3.org/2000/svg">
<rect width="60" height="60" rx="30" fill="#2B3789"/>
<path d="M36.5 35.5H36C36.3978 35.5 36.7794 35.658 37.0607 35.9393C37.342 36.2206 37.5 36.6022 37.5 37C37.5 37.3978 37.342 37.7794 37.0607 38.0607C36.7794 38.342 36.3978 38.5 36 38.5H35.5C35.8978 38.5 36.2794 38.658 36.5607 38.9393C36.842 39.2206 37 39.6022 37 40C37 40.3978 36.842 40.7794 36.5607 41.0607C36.2794 41.342 35.8978 41.5 35.5 41.5H35C35.3978 41.5 35.7794 41.658 36.0607 41.9393C36.342 42.2206 36.5 42.6022 36.5 43C36.5 43.3978 36.342 43.7794 36.0607 44.0607C35.7794 44.342 35.3978 44.5 35 44.5H22.5V33.5C22.77 33.5 26.915 32.255 28 29C29.085 25.745 29.1 24.5 31 24.5C32.5 24.5 32.5 27.37 32.5 29C32.5 30.63 31 32.5 31 32.5H36.5C36.8978 32.5 37.2794 32.658 37.5607 32.9393C37.842 33.2206 38 33.6022 38 34C38 34.3978 37.842 34.7794 37.5607 35.0607C37.2794 35.342 36.8978 35.5 36.5 35.5Z" fill="white"/>
<path d="M22 31.5H17V45.5H22V31.5Z" fill="white"/>
<path d="M19.358 25.7839L20.5 23.4999L18.311 22.6244C18.2192 22.5877 18.1404 22.5243 18.085 22.4424C18.0295 22.3605 17.9999 22.2639 18 22.1649V21.9944C18 21.8633 18.0521 21.7375 18.1448 21.6448C18.2376 21.552 18.3634 21.4999 18.4945 21.4999H21L21.4205 19.3999C21.4429 19.2878 21.5035 19.187 21.5919 19.1145C21.6804 19.042 21.7912 19.0024 21.9055 19.0024H22.0855C22.2017 19.0024 22.3141 19.0433 22.4032 19.1179C22.4922 19.1925 22.5522 19.2961 22.5725 19.4104L22.947 21.5129L25.5035 21.4999C25.5686 21.4997 25.6332 21.5124 25.6934 21.5372C25.7536 21.562 25.8084 21.5984 25.8545 21.6444C25.9006 21.6904 25.9372 21.745 25.9622 21.8052C25.9871 21.8653 26 21.9298 26 21.9949V22.1634C26.0001 22.2624 25.9705 22.359 25.915 22.4409C25.8596 22.5228 25.7808 22.5862 25.689 22.6229L23.5 23.4999L24.642 25.7839C24.6798 25.8593 24.6976 25.9431 24.6939 26.0273C24.6902 26.1116 24.665 26.1935 24.6207 26.2652C24.5764 26.3369 24.5145 26.3962 24.4408 26.4373C24.3672 26.4783 24.2843 26.4999 24.2 26.4999C24.072 26.5 23.949 26.4504 23.857 26.3614L22 24.5714L20.1435 26.3614C20.0514 26.4505 19.9281 26.5002 19.8 26.4999C19.7157 26.4999 19.6328 26.4783 19.5592 26.4373C19.4855 26.3962 19.4236 26.3369 19.3793 26.2652C19.335 26.1935 19.3098 26.1116 19.3061 26.0273C19.3024 25.9431 19.3202 25.8593 19.358 25.7839Z" fill="white"/>
<path d="M36.358 25.7839L37.5 23.4999L35.311 22.6244C35.2192 22.5877 35.1404 22.5243 35.085 22.4424C35.0295 22.3605 34.9999 22.2639 35 22.1649V21.9944C35 21.8633 35.0521 21.7375 35.1448 21.6448C35.2376 21.552 35.3633 21.4999 35.4945 21.4999H38L38.4205 19.3999C38.4429 19.2878 38.5035 19.187 38.5919 19.1145C38.6804 19.042 38.7912 19.0024 38.9055 19.0024H39.0855C39.2017 19.0024 39.3141 19.0433 39.4032 19.1179C39.4922 19.1925 39.5522 19.2961 39.5725 19.4104L39.947 21.5129L42.5035 21.4999C42.5686 21.4997 42.6332 21.5124 42.6934 21.5372C42.7536 21.562 42.8084 21.5984 42.8545 21.6444C42.9006 21.6904 42.9372 21.745 42.9622 21.8052C42.9871 21.8653 43 21.9298 43 21.9949V22.1634C43.0001 22.2624 42.9705 22.359 42.915 22.4409C42.8596 22.5228 42.7808 22.5862 42.689 22.6229L40.5 23.4999L41.642 25.7839C41.6798 25.8593 41.6976 25.9431 41.6939 26.0273C41.6902 26.1116 41.665 26.1935 41.6207 26.2652C41.5764 26.3369 41.5145 26.3962 41.4408 26.4373C41.3672 26.4783 41.2843 26.4999 41.2 26.4999C41.072 26.5 40.949 26.4504 40.857 26.3614L39 24.5714L37.1435 26.3614C37.0514 26.4505 36.9281 26.5002 36.8 26.4999C36.7157 26.4999 36.6328 26.4783 36.5592 26.4373C36.4855 26.3962 36.4236 26.3369 36.3793 26.2652C36.335 26.1935 36.3098 26.1116 36.3061 26.0273C36.3024 25.9431 36.3202 25.8593 36.358 25.7839Z" fill="white"/>
<path d="M27.32 22.7535L28.5 20L25.866 19.122C25.7594 19.0864 25.6667 19.0182 25.601 18.9271C25.5353 18.8359 25.5 18.7264 25.5 18.614V18.464C25.5 18.3351 25.5466 18.2105 25.6311 18.1131C25.7156 18.0158 25.8324 17.9522 25.96 17.934L29 17.5L29.878 14.866C29.9136 14.7594 29.9818 14.6667 30.0729 14.601C30.1641 14.5353 30.2736 14.5 30.386 14.5H30.614C30.7264 14.5 30.8359 14.5353 30.9271 14.601C31.0182 14.6667 31.0864 14.7594 31.122 14.866L32 17.5L35.04 17.9345C35.1676 17.9527 35.2844 18.0163 35.3689 18.1136C35.4534 18.211 35.5 18.3356 35.5 18.4645V18.6145C35.5 18.7269 35.4647 18.8364 35.399 18.9276C35.3333 19.0187 35.2406 19.0869 35.134 19.1225L32.5 20L33.68 22.7535C33.7149 22.8349 33.7291 22.9238 33.7212 23.012C33.7133 23.1003 33.6837 23.1852 33.6349 23.2592C33.5862 23.3332 33.5198 23.3939 33.4418 23.4359C33.3638 23.478 33.2766 23.5 33.188 23.5C33.0664 23.5 32.9484 23.4586 32.8535 23.3825L30.5 21.5L28.1465 23.3825C28.0516 23.4586 27.9336 23.5 27.812 23.5C27.7234 23.5 27.6362 23.478 27.5582 23.4359C27.4802 23.3939 27.4138 23.3332 27.3651 23.2592C27.3163 23.1852 27.2867 23.1003 27.2788 23.012C27.2709 22.9238 27.2851 22.8349 27.32 22.7535Z" fill="white"/>
</svg>
