<svg width="61" height="61" viewBox="0 0 61 61" fill="none" xmlns="http://www.w3.org/2000/svg">
<rect x="0.736328" y="0.578125" width="60" height="60" rx="30" fill="#2B3789"/>
<g clip-path="url(#clip0_2041_8322)">
<path d="M44.3932 35.5781C44.6283 35.4052 44.8137 35.1733 44.9306 34.9059C45.0475 34.6384 45.0917 34.3449 45.059 34.0549C45.0262 33.7649 44.9174 33.4886 44.7438 33.254C44.5701 33.0194 44.3377 32.8348 44.0698 32.7188V30.4381L42.7365 31.0048V32.7188C42.4686 32.8348 42.2359 33.0194 42.0622 33.254C41.8884 33.4887 41.7796 33.765 41.7468 34.0552C41.714 34.3453 41.7584 34.639 41.8754 34.9065C41.9924 35.174 42.1779 35.4059 42.4132 35.5788C42.2039 35.7325 42.0336 35.9333 41.9161 36.1649C41.7986 36.3965 41.737 36.6524 41.7365 36.9121V38.5781C41.7365 38.7549 41.8067 38.9245 41.9318 39.0495C42.0568 39.1745 42.2264 39.2448 42.4032 39.2448H44.4032C44.58 39.2448 44.7496 39.1745 44.8746 39.0495C44.9996 38.9245 45.0698 38.7549 45.0698 38.5781V36.9114C45.0693 36.6517 45.0078 36.3958 44.8903 36.1642C44.7727 35.9326 44.6025 35.7319 44.3932 35.5781Z" fill="white"/>
<path d="M40.7364 31.8514V36.7848C40.74 37.3583 40.5944 37.9229 40.3139 38.4231C40.0334 38.9234 39.6276 39.3421 39.1364 39.6381C36.5873 41.1269 33.6884 41.9114 30.7364 41.9114C27.7844 41.9114 24.8855 41.1269 22.3364 39.6381C21.8452 39.3421 21.4394 38.9234 21.1589 38.4231C20.8784 37.9229 20.7328 37.3583 20.7364 36.7848V31.8514L28.9164 35.3114C29.4926 35.5535 30.1114 35.6781 30.7364 35.6781C31.3614 35.6781 31.9801 35.5535 32.5564 35.3114L40.7364 31.8514Z" fill="white"/>
<path d="M45.4271 24.7361L32.0351 19.0694C31.6236 18.8963 31.1816 18.8071 30.7351 18.8071C30.2887 18.8071 29.8467 18.8963 29.4351 19.0694L16.0431 24.7361C15.6812 24.8892 15.3723 25.1456 15.1552 25.4732C14.9381 25.8008 14.8223 26.1851 14.8223 26.5781C14.8223 26.9711 14.9381 27.3554 15.1552 27.683C15.3723 28.0106 15.6812 28.267 16.0431 28.4201L29.4351 34.0868C29.8466 34.2601 30.2886 34.3493 30.7351 34.3493C31.1816 34.3493 31.6236 34.2601 32.0351 34.0868L45.4271 28.4201C45.7891 28.267 46.098 28.0106 46.3151 27.683C46.5322 27.3554 46.648 26.9711 46.648 26.5781C46.648 26.1851 46.5322 25.8008 46.3151 25.4732C46.098 25.1456 45.7891 24.8892 45.4271 24.7361Z" fill="white"/>
</g>
<defs>
<clipPath id="clip0_2041_8322">
<rect width="32" height="32" fill="white" transform="translate(14.7363 14.5781)"/>
</clipPath>
</defs>
</svg>
