<svg width="60" height="60" viewBox="0 0 60 60" fill="none" xmlns="http://www.w3.org/2000/svg">
<g clip-path="url(#clip0_2033_7629)">
<path d="M54.727 0H49.66L46.0629 3.51562H54.727C55.697 3.51562 56.4848 4.30344 56.4848 5.27344V7.95135C56.4848 11.4944 55.2662 14.9689 53.0516 17.7361C51.1615 20.0999 48.6452 21.8541 45.775 22.8104L43.2962 23.6362C42.3761 23.9433 41.878 24.939 42.1838 25.8609C42.4292 26.5974 43.1158 27.0625 43.8524 27.0625C44.0359 27.0625 44.2232 27.0332 44.4085 26.9733L46.8873 26.1456C50.4011 24.9751 53.4823 22.8259 55.7982 19.9333C58.5072 16.545 60.0004 12.2891 60.0004 7.95135V5.27344C60.0004 2.36572 57.6347 0 54.727 0Z" fill="#FF7816"/>
<path d="M16.7043 23.6362L14.2255 22.8122C11.3553 21.8541 8.83896 20.0999 6.94885 17.7361C4.73419 14.9689 3.51562 11.4944 3.51562 7.95135V5.27344C3.51562 4.30344 4.30344 3.51562 5.27344 3.51562H14.3573L10.3404 0H5.27344C2.36572 0 0 2.36572 0 5.27344V7.95135C0 12.2891 1.49323 16.545 4.20227 19.9333C6.5181 22.8259 9.5993 24.9751 13.1131 26.1475L15.5919 26.9733C15.7773 27.0332 15.9645 27.0625 16.1481 27.0625C16.8846 27.0625 17.5713 26.5974 17.8166 25.8609C18.1224 24.939 17.6244 23.9433 16.7043 23.6362Z" fill="#FF9F00"/>
<path d="M35.3907 34.3126V36.9141C35.3907 37.8983 36.1639 38.6719 37.1485 38.6719C40.0668 38.6719 42.422 41.0271 42.422 43.9453V47.4609C42.422 48.4451 41.6488 49.2188 40.6642 49.2188H19.336C18.3514 49.2188 17.5782 48.4451 17.5782 47.4609V43.9453C17.5782 41.0271 19.9334 38.6719 22.8517 38.6719C23.8363 38.6719 24.6095 37.8983 24.6095 36.9141V34.3126C18.0703 32.238 13.2894 26.4725 12.5158 19.617L10.3359 0H49.6642L47.4844 19.617C46.7108 26.4725 41.9299 32.238 35.3907 34.3126Z" fill="#FFD400"/>
<path d="M40.6641 49.2188H30V0H49.6642L47.4843 19.617C46.7107 26.4725 41.9298 32.238 35.3906 34.3126V36.9141C35.3906 37.8983 36.1638 38.6719 37.1484 38.6719C40.0667 38.6719 42.4219 41.0271 42.4219 43.9453V47.4609C42.4219 48.4451 41.6487 49.2188 40.6641 49.2188Z" fill="#FF9F00"/>
<path d="M38.7185 13.2536C38.5074 12.5858 37.9453 12.1289 37.2774 12.0236L33.3397 11.461L31.5819 7.98019C31.2656 7.38281 30.6325 7.10129 29.9999 7.10129C29.3673 7.10129 28.7342 7.38281 28.4179 7.98019L26.66 11.461L22.7224 12.0232C22.0545 12.1289 21.4924 12.5858 21.2813 13.2536C21.1055 13.8867 21.2813 14.5894 21.7734 15.0467L24.5859 17.7539L23.918 21.5506C23.8123 22.1837 24.0586 22.8516 24.6212 23.2736C25.1485 23.66 25.8869 23.7305 26.449 23.4142L29.9999 21.5858L33.5508 23.4142C34.1481 23.7305 34.8513 23.66 35.3791 23.2736C35.9412 22.8516 36.1875 22.1837 36.0817 21.5506L35.4139 17.7539L38.2264 15.0467C38.7185 14.5898 38.8947 13.8867 38.7185 13.2536Z" fill="#FF9F00"/>
<path d="M45.9375 47.4609V58.1017H14.0625V47.4609C14.0625 46.4763 14.8357 45.7031 15.8203 45.7031H44.1797C45.1643 45.7031 45.9375 46.4763 45.9375 47.4609Z" fill="#EC5569"/>
<path d="M33.5509 23.4142L30 21.5858V7.10129C30.6326 7.10129 31.2657 7.38281 31.582 7.98019L33.3398 11.461L37.2775 12.0236C37.9454 12.1289 38.5075 12.5858 38.7186 13.2536C38.8943 13.8867 38.7186 14.5898 38.2265 15.0467L35.414 17.7539L36.0818 21.5511C36.1876 22.1837 35.9413 22.8516 35.3787 23.2736C34.8514 23.66 34.1483 23.7305 33.5509 23.4142Z" fill="#FF7816"/>
<path d="M45.9375 47.4609V58.1017H30V45.7031H44.1797C45.1643 45.7031 45.9375 46.4763 45.9375 47.4609Z" fill="#CC2E43"/>
<path d="M49.4531 58.2422C49.4531 59.2264 48.68 60 47.6953 60H12.3047C11.32 60 10.5469 59.2264 10.5469 58.2422C10.5469 57.2575 11.32 56.4844 12.3047 56.4844H47.6953C48.68 56.4844 49.4531 57.2575 49.4531 58.2422Z" fill="#697C86"/>
<path d="M49.4531 58.2422C49.4531 59.2264 48.68 60 47.6953 60H30V56.4844H47.6953C48.68 56.4844 49.4531 57.2575 49.4531 58.2422Z" fill="#465A61"/>
</g>
<defs>
<clipPath id="clip0_2033_7629">
<rect width="60" height="60" fill="white"/>
</clipPath>
</defs>
</svg>
