<svg width="24" height="25" viewBox="0 0 24 25" fill="none" xmlns="http://www.w3.org/2000/svg">
<path d="M21.8906 25.0001C21.8203 25.0001 21.7641 24.986 21.6938 24.9719C18.8672 24.1561 15.8954 23.7203 12.9844 23.65H12.9141V23.6359L12.1265 23.5515L10.7064 22.9469L10.4531 23.6641C6.9093 23.8047 2.75629 24.7188 2.20789 24.986C1.19531 24.986 0 24.0439 0 21.4844C0 20.0079 0.576599 17.9829 2.20789 17.9829C2.75629 18.2501 6.9093 19.1641 10.4531 19.3047L10.7064 19.9094L11.6343 19.4595L12.9703 19.3188H12.9844C15.8954 19.2485 18.8672 18.8126 21.6938 17.9968L20.7515 22.8345L21.8906 25.0001Z" fill="#EDE9E8"/>
<path d="M21.8906 25C21.8203 25 21.7641 24.9859 21.6938 24.9718C18.8672 24.1561 15.8954 23.7203 12.9844 23.65H12.9141V23.6359L12.1265 23.5515L10.7064 22.9468L10.4531 23.6641C6.9093 23.8047 2.75629 24.7187 2.20789 24.9859C1.19531 24.9859 0 24.0438 0 21.4844H21.0187L20.7515 22.8344L21.8906 25Z" fill="#D2C5C2"/>
<path d="M12.7031 23.5938C12.8016 23.5938 12.8859 23.6078 12.9703 23.65C12.1265 23.6078 11.2969 23.6218 10.4531 23.6641C10.1016 23.0875 9.89062 22.3281 9.89062 21.4844C9.89062 20.6406 10.1016 19.8813 10.4531 19.3047C11.2969 19.3468 12.1265 19.3609 12.9703 19.3186C12.8859 19.3609 12.8016 19.375 12.7031 19.375C11.8874 19.375 11.2969 20.2609 11.2969 21.4844C11.2969 22.7079 11.8874 23.5938 12.7031 23.5938Z" fill="#2686ED"/>
<path d="M21.8906 17.9688C20.6953 17.9688 19.7812 19.4735 19.7812 21.4844C19.7812 23.4952 20.6953 25 21.8906 25C23.0859 25 24 23.4952 24 21.4844C24 19.4735 23.0859 17.9688 21.8906 17.9688Z" fill="#DFD7D5"/>
<path d="M12.7031 23.5938C12.8016 23.5938 12.8859 23.6078 12.9703 23.65C12.1265 23.6078 11.2969 23.6218 10.4531 23.6641C10.1016 23.0875 9.89062 22.3281 9.89062 21.4844H11.2969C11.2969 22.7079 11.8874 23.5938 12.7031 23.5938Z" fill="#2A6CB3"/>
<path d="M24 21.4844C24 23.4952 23.0859 25 21.8906 25C20.6953 25 19.7812 23.4952 19.7812 21.4844H24Z" fill="#C4B3AF"/>
<path d="M11.8128 5.08472C11.5764 5.08472 11.3848 5.27633 11.3848 5.5127C11.3848 5.74904 11.5764 5.94065 11.8128 5.94065H20.0323C20.2325 5.94065 20.3859 6.09318 20.3859 6.2934V10.3006C20.5775 10.2315 20.7172 10.2203 20.8139 10.2203C20.9644 10.2203 21.1071 10.252 21.2418 10.3006V6.2934C21.2418 5.63061 20.6951 5.08472 20.0323 5.08472H11.8128Z" fill="#FEDE62"/>
<path d="M11.8131 0.805025C11.3045 0.805025 10.7962 0.902777 10.316 1.09674L0.631949 5.00782C0.228036 5.17101 0 5.56707 0 5.94485C0 6.32264 0.228036 6.71874 0.631949 6.88184L10.316 10.7938C11.276 11.1816 12.3485 11.186 13.3119 10.8062C15.6698 9.8769 18.0289 8.95082 20.3862 8.0202V6.29413C20.3862 6.09392 20.2328 5.94138 20.0326 5.94138H11.8131C11.5767 5.94138 11.3851 5.74978 11.3851 5.51344C11.3851 5.27706 11.5767 5.08545 11.8131 5.08545H20.0326C20.6955 5.08545 21.2422 5.63135 21.2422 6.29413V7.68252C21.8536 7.45886 22.4527 7.21182 23.0428 6.93847C23.4455 6.75182 23.6627 6.34348 23.653 5.95713C23.6433 5.57083 23.4067 5.17302 22.9951 5.00675L13.3111 1.09567C12.8308 0.901707 12.3217 0.803955 11.8131 0.803955L11.8131 0.805025Z" fill="#AB4548"/>
<path d="M21.7622 12.3594C21.5277 12.6189 21.1932 12.7865 20.8201 12.7882H20.8142C20.4402 12.7882 20.1044 12.6217 19.8688 12.3628C19.661 12.5923 19.5303 12.8928 19.5303 13.2237V14.9281C19.5303 15.1644 19.7219 15.356 19.9583 15.3561H21.6702C21.9066 15.356 22.0982 15.1644 22.0982 14.9281V13.2279C22.1012 12.8947 21.9715 12.5906 21.7622 12.3594Z" fill="#FEDE62"/>
<path d="M20.7858 10.2205C20.0889 10.2419 19.5303 10.8434 19.5303 11.5044C19.5303 12.1915 20.1093 12.7883 20.8142 12.7883C21.5196 12.7883 22.0982 12.1896 22.0982 11.5044C22.0982 10.6211 21.3081 10.2205 20.7858 10.2205Z" fill="#FED42F"/>
<path d="M4.79937 8.56519C4.787 8.596 4.77832 8.62836 4.77344 8.66131C4.97716 10.2523 5.18116 11.8433 5.38533 13.4342C5.47001 14.1917 5.97398 14.8394 6.68768 15.1076C9.99092 16.3458 13.6317 16.3461 16.9351 15.1076C17.6526 14.8385 18.144 14.1862 18.24 13.4375C18.4438 11.8449 18.6488 10.2523 18.8527 8.65964C18.8529 8.64809 18.8526 8.6361 18.8519 8.62455C17.0052 9.35221 15.1583 10.0791 13.3114 10.8062C12.348 11.1856 11.2756 11.1813 10.3155 10.7938L4.79937 8.56519Z" fill="#96171A"/>
</svg>
