<svg width="60" height="60" viewBox="0 0 60 60" fill="none" xmlns="http://www.w3.org/2000/svg">
<path d="M48.3613 7.4639H46.6909L30.0003 9.87839L13.3096 7.4639H11.398C9.33684 7.4639 7.66602 5.79308 7.66602 3.73195C7.66589 1.67082 9.33684 0 11.398 0H48.3613C50.4225 0 52.0933 1.67082 52.0933 3.73195C52.0934 5.79308 50.4225 7.4639 48.3613 7.4639Z" fill="#B98080"/>
<path d="M48.6032 0H44.9814C47.0426 0 48.7134 1.67082 48.7134 3.73195C48.7134 5.79308 47.0426 7.4639 44.9814 7.4639H48.6032C50.6643 7.4639 52.3351 5.79308 52.3351 3.73195C52.3352 1.67082 50.6643 0 48.6032 0Z" fill="#AE6C6C"/>
<path d="M46.4494 12.1488V7.4639H13.3096V12.1488C13.3096 19.4165 17.9548 25.5983 24.4381 27.8891C25.3329 28.2053 25.9312 29.051 25.9312 29.9999C25.9312 30.9489 25.3329 31.7946 24.4381 32.1106C17.9549 34.4015 13.3096 40.5833 13.3096 47.8509V52.5358H46.4492V47.8509C46.4492 40.5833 41.804 34.4015 35.3208 32.1106C34.4259 31.7944 33.8276 30.9488 33.8276 29.9999H34.0691C34.0691 29.0509 34.4259 28.2053 35.3208 27.8891C41.804 25.5984 46.4494 19.4165 46.4494 12.1488Z" fill="#EFEDEF"/>
<path d="M13.3096 7.4639V9.82997H40.7502C42.0309 9.82997 43.0691 10.8682 43.0691 12.1488C43.0691 19.3939 38.4526 25.5599 32.001 27.8676C31.2027 28.1532 30.5921 28.8346 30.471 29.6737C30.3156 30.7503 30.9444 31.7586 31.9406 32.1106C38.4237 34.4015 43.0691 40.5834 43.0691 47.8509V52.5358H46.6908V47.8509C46.6908 40.6059 42.0743 34.4399 35.6227 32.1321C34.8245 31.8466 34.2138 31.1651 34.0927 30.3261C33.9374 29.2495 34.5661 28.2412 35.5623 27.8891C42.0455 25.5983 46.6908 19.4163 46.6908 12.1488V9.8301V7.4639H13.3096Z" fill="#D7D0D6"/>
<path d="M48.3613 60H11.398C9.33684 60 7.66602 58.3292 7.66602 56.2681C7.66602 54.2069 9.33684 52.5361 11.398 52.5361H13.3099L30.0005 50.1216L46.6911 52.5361H48.3616C50.4227 52.5361 52.0935 54.2069 52.0935 56.2681C52.0934 58.3292 50.4225 60 48.3613 60Z" fill="#B98080"/>
<path d="M48.6032 52.5361H44.9814C47.0426 52.5361 48.7134 54.2069 48.7134 56.2681C48.7134 58.3292 47.0426 60 44.9814 60H48.6032C50.6643 60 52.3351 58.3292 52.3351 56.2681C52.3352 54.2069 50.6643 52.5361 48.6032 52.5361Z" fill="#AE6C6C"/>
<path d="M38.0373 39.4427H36.2794C34.5117 39.4427 32.762 38.1638 32.4729 36.42L31.7556 32.0941C31.3906 29.8923 33.0889 27.8892 35.3208 27.8892C39.6517 26.3589 43.1599 23.0907 45.0136 18.9239H14.7451C16.5987 23.0908 20.107 26.3589 24.4379 27.8892C26.6698 27.8892 28.3681 29.8923 28.003 32.0941L27.2858 36.42C26.9967 38.1638 25.4884 39.4427 23.7207 39.4427H21.7214C17.1129 39.4427 13.3347 43.1507 13.3098 47.7591C13.3097 47.7898 13.3096 47.8205 13.3096 47.8511V52.5361H46.4492V47.8511C46.4492 47.8205 46.4491 47.7898 46.449 47.7591C46.424 43.1507 42.6458 39.4427 38.0373 39.4427Z" fill="#FED402"/>
<path d="M46.6908 47.7591C46.6658 43.1507 42.8878 39.4427 38.2792 39.4427H36.2798C34.512 39.4427 33.0038 38.1638 32.7147 36.42L31.9975 32.0941C31.6324 29.8923 33.3307 27.8892 35.5626 27.8892C39.8936 26.3589 43.4017 23.0907 45.2554 18.9239H41.6337C39.7801 23.0908 36.2718 26.3589 31.9408 27.8892C29.709 27.8892 28.0107 29.8923 28.3757 32.0941L29.093 36.42C29.3821 38.1638 30.8904 39.4427 32.6581 39.4427H34.6575C39.266 39.4427 43.0442 43.1507 43.0691 47.7591C43.0692 47.7898 43.0693 47.8205 43.0693 47.8511V52.5361H46.6911V47.8511C46.6911 47.8205 46.6909 47.7898 46.6908 47.7591Z" fill="#FAC600"/>
</svg>
