<svg width="52" height="52" viewBox="0 0 52 52" fill="none" xmlns="http://www.w3.org/2000/svg">
<rect width="52" height="52" rx="26" fill="#96171A"/>
<rect x="12" y="12" width="28" height="28" rx="14" fill="white"/>
<g clip-path="url(#clip0_2033_7618)">
<path d="M19.5547 33.6416C19.5547 35.5871 24.0063 35.9999 26 35.9999C27.9743 35.9999 32.4453 35.5912 32.4453 33.6416C32.4453 30.4846 19.5547 30.4959 19.5547 33.6416Z" fill="#FFC543"/>
<path d="M32.4453 33.6418C32.4453 35.5912 27.9742 36 26 36V31.2783C26.3778 31.2779 26.7555 31.2886 27.1281 31.3104C29.934 31.4721 32.4453 32.2482 32.4453 33.6418Z" fill="#FF9900"/>
<path d="M26 16C22.4461 16 19.5547 18.8957 19.5547 22.4549C19.5547 27.479 24.2948 27.4717 25.4254 33.1338C25.5502 33.7586 26.4495 33.7602 26.5746 33.1338C27.7064 27.4655 32.4453 27.4839 32.4453 22.4549C32.4453 18.8957 29.5539 16 26 16Z" fill="#FD4235"/>
<path d="M32.4453 22.4551C32.4453 27.4835 27.7072 27.4653 26.5746 33.1336C26.5121 33.4467 26.2562 33.603 26 33.603V16C29.5539 16 32.4453 18.8957 32.4453 22.4551Z" fill="#EB1102"/>
<path d="M26 19.5212C24.3846 19.5212 23.0703 20.8373 23.0703 22.4549C23.0703 24.0726 24.3846 25.3887 26 25.3887C27.6154 25.3887 28.9297 24.0726 28.9297 22.4549C28.9297 20.8373 27.6154 19.5212 26 19.5212Z" fill="#E8EFFF"/>
<path d="M28.9297 22.455C28.9297 24.0725 27.6153 25.3885 26 25.3885V19.5212C27.6153 19.5212 28.9297 20.8373 28.9297 22.455Z" fill="#CCDFFF"/>
</g>
<defs>
<clipPath id="clip0_2033_7618">
<rect width="20" height="20" fill="white" transform="translate(16 16)"/>
</clipPath>
</defs>
</svg>
