<svg width="24" height="24" viewBox="0 0 24 24" fill="none" xmlns="http://www.w3.org/2000/svg">
<path d="M8.625 7.74976C8.52554 7.74976 8.43016 7.78926 8.35983 7.85959C8.28951 7.92992 8.25 8.0253 8.25 8.12476C8.25 8.22421 8.28951 8.31959 8.35983 8.38992C8.43016 8.46025 8.52554 8.49976 8.625 8.49976H15.375C15.4745 8.49976 15.5698 8.46025 15.6402 8.38992C15.7105 8.31959 15.75 8.22421 15.75 8.12476C15.75 8.0253 15.7105 7.92992 15.6402 7.85959C15.5698 7.78926 15.4745 7.74976 15.375 7.74976H8.625ZM7.125 9.24976C7.02554 9.24976 6.93016 9.28926 6.85983 9.35959C6.78951 9.42992 6.75 9.5253 6.75 9.62476C6.75 9.72421 6.78951 9.81959 6.85983 9.88992C6.93016 9.96025 7.02554 9.99976 7.125 9.99976H16.875C16.9745 9.99976 17.0698 9.96025 17.1402 9.88992C17.2105 9.81959 17.25 9.72421 17.25 9.62476C17.25 9.5253 17.2105 9.42992 17.1402 9.35959C17.0698 9.28926 16.9745 9.24976 16.875 9.24976H7.125Z" fill="#1E90FF"/>
<path d="M7.61865 4.5C7.14322 4.5 6.75 4.89322 6.75 5.36865V5.88135C6.75 6.35678 7.14322 6.75 7.61865 6.75H16.3813C16.8568 6.75 17.25 6.35678 17.25 5.88135V5.36865C17.25 4.89322 16.8568 4.5 16.3813 4.5H7.61865Z" fill="#1E90FF"/>
<path d="M6.49634 11.2493C6.41705 11.2493 6.33741 11.2744 6.27076 11.3247L5.271 12.0747C5.10531 12.1991 5.07186 12.4342 5.19629 12.5999C5.32038 12.7653 5.55501 12.7991 5.72071 12.6753L6.49561 12.0938L7.27124 12.6753C7.40452 12.7751 7.58767 12.7751 7.72095 12.6753L8.72071 11.9253C8.88663 11.8012 8.92042 11.566 8.79615 11.4002C8.67228 11.2347 8.43647 11.2008 8.271 11.3247L7.4961 11.9063L6.7212 11.3247C6.65456 11.2745 6.57563 11.2493 6.49634 11.2493ZM16.9963 11.2493C16.9171 11.2493 16.8374 11.2744 16.7708 11.3247L15.771 12.0747C15.6053 12.1991 15.5719 12.4342 15.6963 12.5999C15.8204 12.7653 16.055 12.7991 16.2207 12.6753L16.9956 12.0938L17.7712 12.6753C17.9045 12.7751 18.0877 12.7751 18.2209 12.6753L19.2207 11.9253C19.3866 11.8012 19.4204 11.566 19.2961 11.4002C19.1723 11.2347 18.9365 11.2008 18.771 11.3247L17.9961 11.9063L17.2212 11.3247C17.1546 11.2745 17.0756 11.2493 16.9963 11.2493Z" fill="#646E72"/>
<path d="M12 14.625C10.9689 14.625 10.125 15.4689 10.125 16.5C10.125 17.5311 10.9689 18.375 12 18.375C13.0311 18.375 13.875 17.5311 13.875 16.5C13.875 15.4689 13.0311 14.625 12 14.625Z" fill="#F7A738"/>
<path d="M11.9994 11.6235C11.7363 11.6235 11.473 11.723 11.2743 11.9216L10.446 12.75H9.27484C8.71304 12.75 8.24944 13.2136 8.24944 13.7754V14.9473L7.42181 15.7749C7.31942 15.8773 7.24363 15.9971 7.19403 16.125C7.05115 16.4932 7.12694 16.9302 7.42181 17.2251L8.24944 18.0527V18.375V19.2246C8.24944 19.6444 8.50815 20.0088 8.87347 20.1665C8.99699 20.2198 9.13288 20.25 9.27484 20.25H10.446L11.2743 21.0784C11.3975 21.2015 11.5461 21.2813 11.7035 21.3281C11.8967 21.3855 12.1022 21.3857 12.2953 21.3281C12.4525 21.2813 12.6008 21.2013 12.7238 21.0784C13 20.8021 13.2765 20.5261 13.5529 20.25H14.7241C14.8663 20.25 15.0018 20.22 15.1254 20.1665C15.4904 20.008 15.7495 19.6435 15.7495 19.2239V18.375V18.0535L16.5778 17.2251C16.8727 16.9302 16.9478 16.4932 16.8049 16.125C16.7553 15.9971 16.6802 15.8773 16.5778 15.7749L15.7494 14.9465V13.7754C15.7494 13.2136 15.2859 12.75 14.7241 12.75H13.5529L12.7238 11.9216C12.5252 11.723 12.2626 11.6235 11.9994 11.6235ZM11.9994 14.625C13.0305 14.625 13.8744 15.4689 13.8744 16.5C13.8744 17.5311 13.0305 18.375 11.9994 18.375C10.9684 18.375 10.1244 17.5311 10.1244 16.5C10.1244 15.4689 10.9684 14.625 11.9994 14.625Z" fill="#FEC93E"/>
<path d="M8.87355 20.1665L7.10695 23.447C6.97224 23.697 7.15334 24.0002 7.43727 24H10.1355C10.2776 24 10.4074 23.9198 10.471 23.7928L11.7036 21.3281C11.5462 21.2813 11.3976 21.2015 11.2744 21.0784L10.4461 20.25H9.27492C9.13296 20.25 8.99707 20.2196 8.87355 20.1665ZM15.1255 20.1665C15.0018 20.22 14.8663 20.25 14.7241 20.25H13.553C13.2766 20.5261 13.0001 20.8022 12.7239 21.0784C12.6009 21.2014 12.4526 21.2813 12.2954 21.3281L13.5274 23.7928C13.5909 23.9198 13.7208 24 13.8628 24H16.5618C16.8457 24.0002 17.0268 23.697 16.8921 23.447L15.1255 20.1665Z" fill="#EA393F"/>
<path d="M4.875 2.25C4.6679 2.25004 4.50002 2.41789 4.5 2.625C4.5 3.66499 3.66498 4.5 2.625 4.5C2.4179 4.50004 2.25002 4.66789 2.25 4.875V13.5C2.25002 13.7071 2.4179 13.875 2.625 13.875C3.66498 13.875 4.5 14.71 4.5 15.75C4.50002 15.9571 4.6679 16.125 4.875 16.125H7.19458C7.24419 15.9971 7.31998 15.8773 7.42236 15.7749L8.25 14.9473V13.7754C8.25 13.2136 8.71359 12.75 9.27539 12.75H10.4465L11.2749 11.9216C11.4735 11.723 11.7368 11.6235 12 11.6235C12.2632 11.6235 12.5257 11.723 12.7244 11.9216L13.5535 12.75H14.7246C15.2864 12.75 15.75 13.2136 15.75 13.7754V14.9465L16.5784 15.7749C16.6808 15.8773 16.7558 15.9971 16.8054 16.125H19.125C19.3321 16.125 19.5 15.9571 19.5 15.75C19.5 14.71 20.335 13.875 21.375 13.875C21.5821 13.875 21.75 13.7071 21.75 13.5V4.875C21.75 4.66789 21.5821 4.50004 21.375 4.5C20.335 4.5 19.5 3.66499 19.5 2.625C19.5 2.41789 19.3321 2.25004 19.125 2.25H4.875ZM7.61865 4.5H16.3813C16.8568 4.5 17.25 4.89322 17.25 5.36865V5.88135C17.25 6.35678 16.8568 6.75 16.3813 6.75H7.61865C7.14322 6.75 6.75 6.35678 6.75 5.88135V5.36865C6.75 4.89322 7.14322 4.5 7.61865 4.5ZM8.625 7.74975H15.375C15.5821 7.74975 15.75 7.91764 15.75 8.12475C15.75 8.33186 15.5821 8.49975 15.375 8.49975H8.625C8.4179 8.49975 8.25 8.33186 8.25 8.12475C8.25 7.91764 8.4179 7.74975 8.625 7.74975ZM7.125 9.24975H16.875C17.0821 9.24975 17.25 9.41764 17.25 9.62475C17.25 9.83186 17.0821 9.99975 16.875 9.99975H7.125C6.9179 9.99975 6.75 9.83186 6.75 9.62475C6.75 9.41764 6.9179 9.24975 7.125 9.24975ZM6.72144 11.3247L7.49634 11.9063L8.27124 11.3247C8.4367 11.2008 8.67252 11.2347 8.79639 11.4001C8.92066 11.566 8.88687 11.8012 8.72095 11.9253L7.72119 12.6753C7.58791 12.7751 7.40476 12.7751 7.27148 12.6753L6.49585 12.0938L5.72095 12.6753C5.55525 12.7991 5.32062 12.7653 5.19653 12.5999C5.0721 12.4342 5.10555 12.199 5.27124 12.0747L6.271 11.3247C6.40429 11.2243 6.58817 11.2243 6.72144 11.3247ZM17.2214 11.3247L17.9963 11.9063L18.7712 11.3247C18.9367 11.2008 19.1725 11.2347 19.2964 11.4001C19.4207 11.566 19.3869 11.8012 19.2209 11.9253L18.2212 12.6753C18.0879 12.7751 17.9048 12.7751 17.7715 12.6753L16.9959 12.0938L16.2209 12.6753C16.0552 12.7991 15.8206 12.7653 15.6965 12.5999C15.5721 12.4342 15.6056 12.199 15.7712 12.0747L16.771 11.3247C16.9043 11.2243 17.0882 11.2243 17.2214 11.3247Z" fill="#DFE4EA"/>
<path d="M1.875 0C0.843908 0 0 0.8439 0 1.875V16.5C0 17.5311 0.843908 18.375 1.875 18.375H8.25V18.0527L7.42236 17.2251C7.12749 16.9302 7.05171 16.4932 7.19458 16.125H4.875C4.6679 16.125 4.50002 15.9571 4.5 15.75C4.5 14.71 3.66498 13.875 2.625 13.875C2.4179 13.875 2.25002 13.7071 2.25 13.5V4.875C2.25002 4.66789 2.4179 4.50004 2.625 4.5C3.66498 4.5 4.5 3.66499 4.5 2.625C4.50002 2.41789 4.6679 2.25004 4.875 2.25H19.125C19.3321 2.25004 19.5 2.41789 19.5 2.625C19.5 3.66499 20.335 4.5 21.375 4.5C21.5821 4.50004 21.75 4.66789 21.75 4.875V13.5C21.75 13.7071 21.5821 13.875 21.375 13.875C20.335 13.875 19.5 14.71 19.5 15.75C19.5 15.9571 19.3321 16.125 19.125 16.125H16.8054C16.9483 16.4932 16.8732 16.9302 16.5784 17.2251L15.75 18.0535V18.375H22.125C23.1561 18.375 24 17.5311 24 16.5V1.875C24 0.8439 23.1561 0 22.125 0H1.875Z" fill="#96171A"/>
</svg>
