<svg width="24" height="24" viewBox="0 0 24 24" fill="none" xmlns="http://www.w3.org/2000/svg">
<path d="M4.875 6C4.77554 6 4.68016 6.03951 4.60983 6.10984C4.53951 6.18016 4.5 6.27554 4.5 6.375C4.5 6.47445 4.53951 6.56984 4.60983 6.64016C4.68016 6.71049 4.77554 6.75 4.875 6.75H10.125C10.2244 6.75 10.3198 6.71049 10.3901 6.64016C10.4605 6.56984 10.5 6.47445 10.5 6.375C10.5 6.27554 10.4605 6.18016 10.3901 6.10984C10.3198 6.03951 10.2244 6 10.125 6H4.875ZM4.875 8.24999C4.77554 8.24999 4.68016 8.2895 4.60983 8.35983C4.53951 8.43015 4.5 8.52554 4.5 8.62499C4.5 8.72445 4.53951 8.81983 4.60983 8.89016C4.68016 8.96048 4.77554 8.99999 4.875 8.99999H9.37498C9.47444 8.99999 9.56982 8.96048 9.64015 8.89016C9.71047 8.81983 9.74998 8.72445 9.74998 8.62499C9.74998 8.52554 9.71047 8.43015 9.64015 8.35983C9.56982 8.2895 9.47444 8.24999 9.37498 8.24999H4.875ZM4.875 10.5C4.77554 10.5 4.68016 10.5395 4.60983 10.6098C4.53951 10.6801 4.5 10.7755 4.5 10.875C4.5 10.9744 4.53951 11.0698 4.60983 11.1401C4.68016 11.2105 4.77554 11.25 4.875 11.25H8.24999C8.34944 11.25 8.44483 11.2105 8.51515 11.1401C8.58548 11.0698 8.62499 10.9744 8.62499 10.875C8.62499 10.7755 8.58548 10.6801 8.51515 10.6098C8.44483 10.5395 8.34944 10.5 8.24999 10.5H4.875ZM4.875 12.75C4.77554 12.75 4.68016 12.7895 4.60983 12.8598C4.53951 12.9301 4.5 13.0255 4.5 13.125C4.5 13.2244 4.53951 13.3198 4.60983 13.3901C4.68016 13.4605 4.77554 13.5 4.875 13.5H7.49999C7.59945 13.5 7.69483 13.4605 7.76515 13.3901C7.83548 13.3198 7.87499 13.2244 7.87499 13.125C7.87499 13.0255 7.83548 12.9301 7.76515 12.8598C7.69483 12.7895 7.59945 12.75 7.49999 12.75H4.875ZM4.875 14.9773C4.77554 14.9773 4.68016 15.0168 4.60983 15.0871C4.53951 15.1574 4.5 15.2528 4.5 15.3523C4.5 15.4517 4.53951 15.5471 4.60983 15.6174C4.68016 15.6878 4.77554 15.7273 4.875 15.7273H8.99999C9.01143 15.7232 9.02267 15.7186 9.03366 15.7134C8.8439 15.6793 8.66922 15.5892 8.54001 15.46C8.41334 15.3333 8.3244 15.1628 8.28879 14.9774L4.875 14.9773Z" fill="#2686ED"/>
<path d="M20.6511 1.16821C20.543 1.16821 20.4361 1.18809 20.3317 1.21876H20.3302C20.1564 1.27003 19.9917 1.35882 19.8556 1.49487L19.5759 1.77466C19.6292 1.80916 19.6794 1.84895 19.726 1.89552L19.9853 2.15405C20.0318 2.20062 20.0715 2.25162 20.1061 2.30495C20.3431 2.6693 20.3034 3.16819 19.9853 3.48634L18.1352 5.33644C17.8169 5.65474 17.3175 5.6946 16.9531 5.45726C16.8999 5.42276 16.8493 5.38282 16.8029 5.33644L16.5444 5.07716C16.498 5.03074 16.4574 4.98086 16.4228 4.92773C14.2347 7.11461 12.0478 9.30272 9.86031 11.4902C9.83226 11.518 9.80876 11.5502 9.79073 11.5854L8.81445 13.5123C9.55546 14.0221 10.0082 14.5099 10.4588 15.2028C11.1114 14.8721 11.7638 14.541 12.4166 14.2106C12.4518 14.1926 12.4839 14.1691 12.5118 14.141L22.507 4.14477C22.85 3.80187 22.9186 3.28643 22.7224 2.86891C22.669 2.75558 22.6001 2.64781 22.507 2.5547C22.0231 2.0708 21.7748 1.82307 21.4465 1.49562C21.3532 1.40236 21.2451 1.33374 21.1315 1.2803C20.9797 1.20886 20.8162 1.16896 20.6511 1.16896V1.16821Z" fill="#2686ED"/>
<path d="M8.81377 13.511L8.36919 14.3884C8.27182 14.5806 8.25204 14.7868 8.28863 14.9773C8.32425 15.1627 8.41318 15.3333 8.53985 15.46C8.66906 15.5892 8.84373 15.6793 9.0335 15.7134C9.22088 15.7471 9.42299 15.7261 9.61138 15.6306L10.4581 15.2014C10.0153 14.5207 9.56522 14.0279 8.81377 13.511Z" fill="#4C5457"/>
<path d="M17.6345 7.49998e-05C15.1395 7.49998e-05 12.1996 2.68045 11.8579 3.00007H4.87499C3.8439 3.00007 3 3.844 3 4.87506V17.625C3 17.4179 3.16789 17.25 3.375 17.25H3.75H11.8579C12.1836 16.9454 15.1362 14.25 17.6345 14.25C19.9509 14.25 20.9994 15.894 20.9999 17.625V5.65142L12.5112 14.1402C12.4833 14.1683 12.4512 14.1917 12.416 14.2098C11.481 14.683 10.5463 15.1569 9.61155 15.6306C9.42316 15.7261 9.22106 15.7471 9.03367 15.7134C9.02268 15.7186 9.01143 15.7231 9 15.7273H4.87501C4.6679 15.7273 4.50001 15.5594 4.50001 15.3523C4.50001 15.1452 4.6679 14.9773 4.87501 14.9773H8.28882C8.25222 14.7867 8.27202 14.5805 8.36938 14.3884L9.79028 11.5839C9.80831 11.5487 9.83179 11.5166 9.85986 11.4887C12.0479 9.30181 14.2339 7.11275 16.4223 4.92625C16.185 4.56182 16.2256 4.06244 16.5439 3.74414L18.394 1.89404C18.7122 1.5759 19.211 1.53626 19.5754 1.77318L19.8552 1.4934C19.9912 1.35735 20.156 1.26855 20.3298 1.21728C19.8033 0.518923 18.9127 7.49998e-05 17.6345 7.49998e-05ZM4.87499 6.00006H10.125C10.3321 6.00006 10.5 6.16794 10.5 6.37506C10.5 6.58217 10.3321 6.75005 10.125 6.75005H4.87499C4.66789 6.75005 4.5 6.58217 4.5 6.37506C4.5 6.16794 4.66789 6.00006 4.87499 6.00006ZM4.87499 8.25005H9.37498C9.58208 8.25005 9.74998 8.41794 9.74998 8.62505C9.74998 8.83216 9.58208 9.00005 9.37498 9.00005H4.87499C4.66789 9.00005 4.5 8.83216 4.5 8.62505C4.5 8.41794 4.66789 8.25005 4.87499 8.25005ZM4.87499 10.5H8.24998C8.45709 10.5 8.62498 10.6679 8.62498 10.875C8.62498 11.0822 8.45709 11.25 8.24998 11.25H4.87499C4.66789 11.25 4.5 11.0822 4.5 10.875C4.5 10.6679 4.66789 10.5 4.87499 10.5ZM4.87499 12.75H7.49999C7.70709 12.75 7.87498 12.9179 7.87498 13.125C7.87498 13.3321 7.70709 13.5 7.49999 13.5H4.87499C4.66789 13.5 4.5 13.3321 4.5 13.125C4.5 12.9179 4.66789 12.75 4.87499 12.75Z" fill="white"/>
<path d="M17.6345 14.25C15.137 14.25 12.1855 16.9436 11.8579 17.25H3.375C3.16789 17.25 3 17.4179 3 17.625V19.125C3 20.156 3.8439 21 4.87499 21H19.1249C20.156 21 20.9999 20.156 20.9999 19.125V17.6265C20.9992 15.8956 19.9511 14.2515 17.6345 14.2515V14.25Z" fill="#E3E3E3"/>
<path d="M1.87499 6C0.843905 6 0 6.8439 0 7.87499V22.1249C0 23.156 0.843905 23.9999 1.87499 23.9999H22.1249C23.156 23.9999 23.9999 23.156 23.9999 22.1249V7.87499C23.9999 6.8439 23.156 6 22.1249 6H20.9999V19.125C20.9999 20.156 20.156 21 19.1249 21H4.87498C3.84389 21 2.99999 20.156 2.99999 19.125V6H1.87499Z" fill="#96171A"/>
<path d="M22.7715 0C22.5479 0 22.3247 0.0842247 22.1562 0.252674C21.8142 0.593698 21.4728 0.936635 21.1309 1.27882C21.2444 1.33226 21.3525 1.40088 21.4458 1.49415L22.5063 2.55468C22.5995 2.64779 22.6683 2.75557 22.7217 2.86889C23.0635 2.52734 23.4053 2.18587 23.7471 1.84424C24.0839 1.50738 24.0839 0.949947 23.7471 0.613048C23.6265 0.492861 23.5074 0.372899 23.3874 0.252674C23.2191 0.0844122 22.9951 0 22.7715 0Z" fill="#4C5457"/>
<path d="M19.0468 1.62095C18.8096 1.6247 18.5732 1.71519 18.3942 1.89413L16.5441 3.74423C16.2258 4.06253 16.1852 4.56191 16.4225 4.92634C16.5693 5.13169 16.7629 5.29342 16.9528 5.45587H16.9535C17.3179 5.69257 17.8169 5.65234 18.1349 5.3343L19.985 3.4842C20.3032 3.16606 20.3428 2.66716 20.1059 2.30281C20.0176 2.16702 19.6997 1.8533 19.5756 1.77256C19.4162 1.66891 19.2313 1.6178 19.0468 1.6202L19.0468 1.62095Z" fill="#4C5457"/>
<path d="M17.634 0C16.236 0 14.7936 0.796498 13.6694 1.56517C12.6667 2.25086 12.0075 2.85963 11.8574 2.99999V9.4907C13.379 7.96929 14.8997 6.44705 16.4219 4.92625C16.1845 4.56182 16.2251 4.06244 16.5435 3.74414L18.3935 1.89404C18.7117 1.5759 19.2106 1.53626 19.5749 1.77318L19.8547 1.4934C19.9908 1.35735 20.1555 1.26855 20.3293 1.21728C19.8028 0.518923 18.9123 0 17.634 0ZM20.9995 5.65135L12.5107 14.1403C12.4829 14.1684 12.4507 14.1918 12.4155 14.2099C12.2293 14.3038 12.0434 14.3984 11.8574 14.4927V17.2499C12.1832 16.9453 15.1357 14.25 17.634 14.25C19.9505 14.25 20.9989 15.894 20.9995 17.6249L20.9995 5.65135Z" fill="#E3E3E3"/>
<path d="M17.634 14.25C15.1366 14.25 12.1851 16.9435 11.8574 17.25V21H19.1245C20.1556 21 20.9995 20.156 20.9995 19.125V17.6265C20.9987 15.8956 19.9506 14.2515 17.634 14.2515V14.25Z" fill="#A2B1C3"/>
</svg>
