<svg width="60" height="60" viewBox="0 0 60 60" fill="none" xmlns="http://www.w3.org/2000/svg">
<g clip-path="url(#clip0_2033_7627)">
<path d="M10.6641 52.9248C10.6641 58.7613 24.0189 59.9995 30 59.9995C35.923 59.9995 49.3359 58.7736 49.3359 52.9248C49.3359 43.4537 10.6641 43.4875 10.6641 52.9248Z" fill="#FFC543"/>
<path d="M49.3359 52.9252C49.3359 58.7736 35.9225 60 30 60V45.8349C31.1334 45.8336 32.2664 45.8656 33.3842 45.9311C41.8021 46.4163 49.3359 48.7445 49.3359 52.9252Z" fill="#FF9900"/>
<path d="M30 0C19.3382 0 10.6641 8.68698 10.6641 19.3648C10.6641 34.4371 24.8845 34.4151 28.2761 51.4014C28.6505 53.2759 31.3486 53.2805 31.7239 51.4014C35.1192 34.3964 49.3359 34.4518 49.3359 19.3648C49.3359 8.68698 40.6618 0 30 0Z" fill="#FD4235"/>
<path d="M49.3359 19.3652C49.3359 34.4504 35.1215 34.3959 31.7239 51.4009C31.5363 52.3402 30.7686 52.809 30 52.809V0C40.6618 0 49.3359 8.68698 49.3359 19.3652Z" fill="#EB1102"/>
<path d="M30 10.5638C25.1537 10.5638 21.2109 14.512 21.2109 19.3648C21.2109 24.218 25.1537 28.1662 30 28.1662C34.8463 28.1662 38.7891 24.218 38.7891 19.3648C38.7891 14.512 34.8463 10.5638 30 10.5638Z" fill="#E8EFFF"/>
<path d="M38.7891 19.3652C38.7891 24.2175 34.8459 28.1657 30 28.1657V10.5638C34.8459 10.5638 38.7891 14.512 38.7891 19.3652Z" fill="#CCDFFF"/>
</g>
<defs>
<clipPath id="clip0_2033_7627">
<rect width="60" height="60" fill="white"/>
</clipPath>
</defs>
</svg>
