<svg width="32" height="32" viewBox="0 0 32 32" fill="none" xmlns="http://www.w3.org/2000/svg">
<path d="M18.9557 4.6662C17.061 3.77793 14.9377 3.77793 13.043 4.6662L7.3186 7.34994C8.36119 7.46244 9.31437 8.11919 9.75686 9.15169C10.4095 10.6746 9.70408 12.4382 8.18119 13.0909L6.74695 13.7056C6.03427 14.011 5.62982 14.1875 5.35677 14.3275C5.35527 14.3493 5.35386 14.3717 5.35254 14.3949L13.0432 18.0005C14.9378 18.8887 17.0611 18.8887 18.9558 18.0005L27.8773 13.8179C29.8179 12.9081 29.8179 9.75866 27.8773 8.84885L18.9557 4.6662Z" fill="#00A236"/>
<path d="M7.3936 11.2527C7.90123 11.0352 8.13638 10.4473 7.91882 9.93967C7.70127 9.43204 7.11339 9.19689 6.60576 9.41444L5.12392 10.0495C4.38062 10.368 3.75071 10.638 3.25639 10.9161C2.73041 11.212 2.27769 11.5593 1.93859 12.0735C1.59949 12.5878 1.45863 13.1407 1.39384 13.7407C1.33296 14.3046 1.33298 14.9899 1.33301 15.7985V19.6669C1.33301 20.2192 1.78073 20.6669 2.33301 20.6669C2.8853 20.6669 3.33301 20.2192 3.33301 19.6669V15.8504C3.33301 14.976 3.33436 14.3993 3.38229 13.9554C3.42761 13.5356 3.50695 13.3282 3.60828 13.1745C3.7096 13.0208 3.86903 12.8662 4.23701 12.6592C4.62614 12.4403 5.15567 12.2118 5.95936 11.8674L7.3936 11.2527Z" fill="#00A236"/>
<path opacity="0.5" d="M6.66699 15.0109L13.0438 18.0005C14.9385 18.8888 17.0618 18.8888 18.9564 18.0005L25.3337 15.0107V22.1671C25.3337 23.5111 24.6623 24.7694 23.4865 25.4206C21.5287 26.5048 18.395 27.9998 16.0003 27.9998C13.6057 27.9998 10.4719 26.5048 8.5141 25.4206C7.33833 24.7694 6.66699 23.5111 6.66699 22.1671V15.0109Z" fill="#00A236"/>
</svg>
