<svg width="32" height="32" viewBox="0 0 32 32" fill="none" xmlns="http://www.w3.org/2000/svg">
<path fill-rule="evenodd" clip-rule="evenodd" d="M17.4769 18.0006C16.6246 17.2742 15.371 17.2742 14.5187 18.0006C14.1534 18.3118 13.6993 18.4999 13.221 18.5381C12.1047 18.6272 11.2182 19.5136 11.1292 20.6299C11.091 21.1083 10.9029 21.5624 10.5916 21.9276C9.86529 22.7799 9.86529 24.0335 10.5916 24.8859C10.9029 25.2511 11.091 25.7052 11.1292 26.1836C11.2182 27.2999 12.1047 28.1863 13.221 28.2754C13.6993 28.3135 14.1534 28.5017 14.5187 28.8129C15.371 29.5393 16.6246 29.5393 17.4769 28.8129C17.8422 28.5017 18.2963 28.3135 18.7746 28.2754C19.8909 28.1863 20.7774 27.2999 20.8664 26.1836C20.9046 25.7052 21.0927 25.2511 21.404 24.8859C22.1303 24.0335 22.1303 22.7799 21.404 21.9276C21.0927 21.5624 20.9046 21.1083 20.8664 20.6299C20.7774 19.5136 19.8909 18.6272 18.7746 18.5381C18.2963 18.4999 17.8422 18.3118 17.4769 18.0006ZM18.6804 22.8047C19.0841 22.4279 19.1059 21.7951 18.7291 21.3913C18.3523 20.9876 17.7195 20.9658 17.3157 21.3426L15.1409 23.3724L14.6804 22.9426C14.2766 22.5658 13.6438 22.5876 13.267 22.9913C12.8902 23.3951 12.912 24.0279 13.3157 24.4047L14.4586 25.4714C14.8428 25.83 15.439 25.83 15.8232 25.4714L18.6804 22.8047Z" fill="#00A236"/>
<path opacity="0.5" d="M2.66699 16.0001V10.6667C2.66699 6.89551 2.66699 5.0099 3.83856 3.83832C5.01014 2.66675 6.89576 2.66675 10.667 2.66675H21.3337C25.1049 2.66675 26.9905 2.66675 28.1621 3.83832C29.3337 5.00989 29.3337 6.89551 29.3337 10.6667V16.0001C29.3337 19.7713 29.3337 21.6569 28.1621 22.8285C27.0477 23.9429 25.2873 23.9973 21.8726 23.9999C22.0626 23.2937 21.9072 22.515 21.4063 21.9271C21.095 21.5619 20.9069 21.1078 20.8687 20.6294C20.7796 19.5131 19.8932 18.6267 18.7769 18.5376C18.2986 18.4994 17.8444 18.3113 17.4792 18.0001C16.6269 17.2737 15.3733 17.2737 14.521 18.0001C14.1557 18.3113 13.7016 18.4994 13.2232 18.5376C12.107 18.6267 11.2205 19.5131 11.1314 20.6294C11.0933 21.1078 10.9052 21.5619 10.5939 21.9271C10.093 22.515 9.93752 23.2937 10.1276 23.9999C6.71319 23.9973 4.95289 23.9428 3.83856 22.8285C2.66699 21.6569 2.66699 19.7713 2.66699 16.0001Z" fill="#00A236"/>
<path d="M10.9997 8C10.9997 7.44772 11.4474 7 11.9997 7H19.9997C20.552 7 20.9997 7.44772 20.9997 8C20.9997 8.55228 20.552 9 19.9997 9H11.9997C11.4474 9 10.9997 8.55228 10.9997 8Z" fill="#00A236"/>
<path d="M9.33301 11.6667C8.78072 11.6667 8.33301 12.1144 8.33301 12.6667C8.33301 13.219 8.78072 13.6667 9.33301 13.6667H22.6663C23.2186 13.6667 23.6663 13.219 23.6663 12.6667C23.6663 12.1144 23.2186 11.6667 22.6663 11.6667H9.33301Z" fill="#00A236"/>
</svg>
