<svg width="32" height="32" viewBox="0 0 32 32" fill="none" xmlns="http://www.w3.org/2000/svg">
<path opacity="0.5" d="M2.66699 10.6667V16.0001C2.66699 19.7713 2.66699 21.6569 3.83856 22.8285C4.4737 23.4636 5.31868 23.7545 6.56019 23.8876C6.65885 23.7544 6.75225 23.6495 6.81888 23.5762C6.97377 23.4059 7.17018 23.2122 7.36059 23.0245L9.35114 21.0616L10.0863 20.317C10.5694 17.4869 13.0331 15.3334 16.0004 15.3334C18.9677 15.3334 21.4314 17.4869 21.9145 20.317L22.6497 21.0616L24.6403 23.0246C24.8307 23.2123 25.0271 23.4059 25.1819 23.5762C25.2486 23.6495 25.342 23.7544 25.4406 23.8876C26.682 23.7544 27.527 23.4636 28.1621 22.8285C29.3337 21.6569 29.3337 19.7713 29.3337 16.0001V10.6667C29.3337 6.89551 29.3337 5.00989 28.1621 3.83832C26.9905 2.66675 25.1049 2.66675 21.3337 2.66675H10.667C6.89576 2.66675 5.01014 2.66675 3.83856 3.83832C2.66699 5.0099 2.66699 6.89551 2.66699 10.6667Z" fill="#00A236"/>
<path d="M9.33301 11.6667C8.78072 11.6667 8.33301 12.1144 8.33301 12.6667C8.33301 13.219 8.78072 13.6667 9.33301 13.6667H22.6663C23.2186 13.6667 23.6663 13.219 23.6663 12.6667C23.6663 12.1144 23.2186 11.6667 22.6663 11.6667H9.33301Z" fill="#00A236"/>
<path d="M10.9997 8C10.9997 7.44772 11.4474 7 11.9997 7H19.9997C20.552 7 20.9997 7.44772 20.9997 8C20.9997 8.55228 20.552 9 19.9997 9H11.9997C11.4474 9 10.9997 8.55228 10.9997 8Z" fill="#00A236"/>
<path d="M12.0015 21.2231C12.0005 21.2597 12 21.2964 12 21.3333C12 23.5424 13.7909 25.3333 16 25.3333C18.2091 25.3333 20 23.5424 20 21.3333C20 21.2964 19.9995 21.2597 19.9985 21.2231C19.9402 19.0649 18.1723 17.3333 16 17.3333C13.9289 17.3333 12.2255 18.9073 12.0207 20.9243C12.0106 21.0229 12.0042 21.1226 12.0015 21.2231Z" fill="#00A236"/>
<path d="M10.2343 22.9991L8.79364 24.4197C8.36155 24.8458 8.1455 25.0588 8.07074 25.2392C7.90038 25.6503 8.04617 26.1064 8.41711 26.3227C8.57989 26.4176 8.8735 26.4471 9.46071 26.5063C9.79226 26.5397 9.95804 26.5564 10.0969 26.6071C10.4077 26.7205 10.6495 26.959 10.7646 27.2655C10.816 27.4024 10.8329 27.5659 10.8668 27.8928C10.9268 28.4719 10.9568 28.7614 11.053 28.9219C11.2723 29.2877 11.7348 29.4315 12.1517 29.2635C12.3347 29.1898 12.5507 28.9767 12.9828 28.5506L14.4234 27.124C12.4067 26.5762 10.8122 25.0031 10.2343 22.9991Z" fill="#00A236"/>
<path d="M17.5766 27.124L19.0172 28.5506C19.4493 28.9767 19.6653 29.1898 19.8483 29.2635C20.2652 29.4315 20.7277 29.2877 20.947 28.9219C21.0432 28.7614 21.0732 28.4719 21.1332 27.8928C21.1671 27.5659 21.184 27.4024 21.2354 27.2655C21.3505 26.959 21.5923 26.7205 21.9031 26.6071C22.042 26.5564 22.2077 26.5397 22.5393 26.5063C23.1265 26.4471 23.4201 26.4176 23.5829 26.3227C23.9538 26.1064 24.0996 25.6503 23.9293 25.2392C23.8545 25.0588 23.6384 24.8458 23.2064 24.4197L21.7657 22.9991C21.1878 25.0031 19.5933 26.5762 17.5766 27.124Z" fill="#00A236"/>
</svg>
