<svg width="16" height="16" viewBox="0 0 16 16" fill="none" xmlns="http://www.w3.org/2000/svg">
<g clip-path="url(#clip0_2058_5734)">
<path fill-rule="evenodd" clip-rule="evenodd" d="M13.8601 10.3408C13.7285 13.4817 11.1416 15.988 7.96836 15.988C4.71094 15.988 2.07032 13.2586 2.07032 10.09C2.07032 9.66643 2.06272 8.82 2.69777 7.39192C3.07781 6.53727 3.31618 6.00036 3.45071 5.50957C3.52462 5.23983 3.66837 4.81128 4.07816 5.50957C4.31979 5.9213 4.32914 6.51349 4.32914 6.51349C4.32914 6.51349 5.22815 5.82361 5.83502 4.50565C6.72469 2.57354 6.01485 1.41859 5.77228 0.615452C5.68832 0.337617 5.63562 -0.161708 6.21149 0.0507465C6.79829 0.26728 8.3496 1.35321 9.16051 2.49781C10.3178 4.13137 10.7291 5.6978 10.7291 5.6978C10.7291 5.6978 11.0997 5.23788 11.2311 4.75663C11.3795 4.21319 11.3817 3.67497 11.8585 4.25473C12.3119 4.80607 12.9854 5.84218 13.3644 6.82722C14.0527 8.61602 13.8601 10.3408 13.8601 10.3408Z" fill="url(#paint0_linear_2058_5734)"/>
<path fill-rule="evenodd" clip-rule="evenodd" d="M7.96808 15.988C5.71559 15.988 3.88965 14.162 3.88965 11.9096C3.88965 10.5504 4.43735 9.72528 5.57724 8.60628C6.30709 7.88979 6.9902 7.00979 7.28052 6.41058C7.33768 6.29262 7.46775 5.6779 7.96927 6.39765C8.23236 6.77513 8.64479 7.44644 8.90926 8.01936C9.36516 9.00716 9.47396 9.96446 9.47396 9.96446C9.47396 9.96446 9.92077 9.70118 10.2269 9.02328C10.3256 8.80481 10.5251 7.9777 11.0829 8.80468C11.4922 9.41155 12.0545 10.5027 12.0465 11.9096C12.0465 14.162 10.2205 15.988 7.96808 15.988Z" fill="#FC9502"/>
<path fill-rule="evenodd" clip-rule="evenodd" d="M8.03079 11.5332C8.61118 11.5332 8.61118 12.608 9.34843 14.043C9.83935 14.9986 9.10505 15.9881 8.03079 15.9881C6.95653 15.9881 6.39941 15.1173 6.39941 14.043C6.39941 12.9688 7.45039 11.5332 8.03079 11.5332Z" fill="#FCE202"/>
</g>
<defs>
<linearGradient id="paint0_linear_2058_5734" x1="7.9772" y1="15.9998" x2="7.9772" y2="0.0115935" gradientUnits="userSpaceOnUse">
<stop stop-color="#FF4C0D"/>
<stop offset="1" stop-color="#FC9502"/>
</linearGradient>
<clipPath id="clip0_2058_5734">
<rect width="16" height="16" fill="white"/>
</clipPath>
</defs>
</svg>
