<svg width="16" height="16" viewBox="0 0 16 16" fill="none" xmlns="http://www.w3.org/2000/svg">
<g clip-path="url(#clip0_2058_5732)">
<path fill-rule="evenodd" clip-rule="evenodd" d="M10.5729 9.99155C7.64851 9.99155 5.28647 7.62013 5.28647 4.70508C5.28647 7.62013 2.91506 9.99155 0 9.99155C2.91506 9.99155 5.28647 12.3536 5.28647 15.2686C5.28647 12.3536 7.64851 9.99155 10.5729 9.99155Z" fill="#45B441"/>
<path fill-rule="evenodd" clip-rule="evenodd" d="M16.0006 12.7196C14.3978 12.7196 13.1043 11.4167 13.1043 9.82324C13.1043 11.4167 11.8014 12.7196 10.208 12.7196C11.8014 12.7196 13.1043 14.013 13.1043 15.6159C13.1043 14.013 14.3978 12.7196 16.0006 12.7196Z" fill="#45B441"/>
<path fill-rule="evenodd" clip-rule="evenodd" d="M14.3318 3.90859C12.3822 3.90859 10.8075 2.3339 10.8075 0.384277C10.8075 2.3339 9.23282 3.90859 7.2832 3.90859C9.23282 3.90859 10.8075 5.48328 10.8075 7.4329C10.8075 5.48328 12.3822 3.90859 14.3318 3.90859Z" fill="#45B441"/>
</g>
<defs>
<clipPath id="clip0_2058_5732">
<rect width="16" height="16" fill="white"/>
</clipPath>
</defs>
</svg>
