<svg width="20" height="20" viewBox="0 0 20 20" fill="none" xmlns="http://www.w3.org/2000/svg">
<g clip-path="url(#clip0_2089_4952)">
<path d="M12.6383 9.68721L9.31594 7.27212C9.19401 7.18373 9.03216 7.17042 8.89852 7.23911C8.76381 7.30726 8.67969 7.44569 8.67969 7.5953V12.4239C8.67969 12.5751 8.76381 12.713 8.89852 12.7812C8.95549 12.8099 9.01778 12.8243 9.08061 12.8243C9.1626 12.8243 9.24566 12.7982 9.31594 12.7465L12.6383 10.3336C12.7432 10.2564 12.8044 10.1371 12.8044 10.0104C12.8049 9.88155 12.7421 9.76282 12.6383 9.68721Z" fill="#D3262E"/>
<path d="M10.0003 2.0011C5.58111 2.0011 2 5.58221 2 10.0014C2 14.4189 5.58111 17.999 10.0003 17.999C14.4184 17.999 18 14.4184 18 10.0014C18.0005 5.58221 14.4184 2.0011 10.0003 2.0011ZM10.0003 16.6642C6.32012 16.6642 3.33639 13.682 3.33639 10.0014C3.33639 6.32229 6.32012 3.33643 10.0003 3.33643C13.6799 3.33643 16.6631 6.32175 16.6631 10.0014C16.6636 13.682 13.6799 16.6642 10.0003 16.6642Z" fill="#D3262E"/>
</g>
<defs>
<clipPath id="clip0_2089_4952">
<rect width="16" height="16" fill="white" transform="translate(2 2)"/>
</clipPath>
</defs>
</svg>
