<svg width="24" height="24" viewBox="0 0 24 24" fill="none" xmlns="http://www.w3.org/2000/svg">
<path d="M16.4008 12C16.4008 12.6628 16.938 13.2 17.6008 13.2C18.2635 13.2 18.8008 12.6628 18.8008 12C18.8008 11.3373 18.2635 10.8 17.6008 10.8C16.938 10.8 16.4008 11.3373 16.4008 12Z" fill="#464646"/>
<path d="M10.7992 12C10.7992 12.6628 11.3365 13.2 11.9992 13.2C12.662 13.2 13.1992 12.6628 13.1992 12C13.1992 11.3373 12.662 10.8 11.9992 10.8C11.3365 10.8 10.7992 11.3373 10.7992 12Z" fill="#464646"/>
<path d="M5.20156 12C5.20156 12.6628 5.73882 13.2 6.40156 13.2C7.0643 13.2 7.60156 12.6628 7.60156 12C7.60156 11.3373 7.0643 10.8 6.40156 10.8C5.73882 10.8 5.20156 11.3373 5.20156 12Z" fill="#464646"/>
</svg>
