<svg width="24" height="24" viewBox="0 0 24 24" fill="none" xmlns="http://www.w3.org/2000/svg">
<path d="M22.4331 11.691C21.4949 9.72982 20.0125 8.07986 18.1627 6.93784C16.3128 5.79581 14.1735 5.2099 11.9999 5.24997C9.82623 5.2099 7.68694 5.79581 5.83706 6.93784C3.98718 8.07986 2.50478 9.72982 1.56661 11.691C1.52271 11.7881 1.5 11.8934 1.5 12C1.5 12.1065 1.52271 12.2119 1.56661 12.309C2.50478 14.2701 3.98718 15.9201 5.83706 17.0621C7.68694 18.2041 9.82623 18.79 11.9999 18.75C14.1735 18.79 16.3128 18.2041 18.1627 17.0621C20.0125 15.9201 21.4949 14.2701 22.4331 12.309C22.477 12.2119 22.4997 12.1065 22.4997 12C22.4997 11.8934 22.477 11.7881 22.4331 11.691ZM11.9999 15.75C11.2582 15.75 10.5332 15.53 9.91647 15.118C9.29979 14.7059 8.81914 14.1203 8.53531 13.435C8.25148 12.7498 8.17722 11.9958 8.32192 11.2684C8.46661 10.541 8.82376 9.87277 9.34821 9.34832C9.87266 8.82388 10.5408 8.46672 11.2683 8.32203C11.9957 8.17733 12.7497 8.2516 13.4349 8.53542C14.1201 8.81925 14.7058 9.2999 15.1179 9.91658C15.5299 10.5333 15.7499 11.2583 15.7499 12C15.7487 12.9942 15.3532 13.9473 14.6502 14.6503C13.9472 15.3533 12.9941 15.7488 11.9999 15.75Z" fill="#131313"/>
<path d="M12 14.25C13.2426 14.25 14.25 13.2426 14.25 12C14.25 10.7574 13.2426 9.75 12 9.75C10.7574 9.75 9.75 10.7574 9.75 12C9.75 13.2426 10.7574 14.25 12 14.25Z" fill="#131313"/>
</svg>
