<svg width="24" height="24" viewBox="0 0 24 24" fill="none" xmlns="http://www.w3.org/2000/svg">
<path d="M11.9906 5.74989L11.9999 5.75006L12.0091 5.74989C14.0868 5.71158 16.1317 6.27164 17.9 7.36329C19.6664 8.45375 21.0822 10.0287 21.9791 11.9006C21.9927 11.932 21.9997 11.9658 21.9997 12C21.9997 12.0342 21.9927 12.068 21.9791 12.0993C21.0822 13.9713 19.6664 15.5462 17.9 16.6367C16.1317 17.7283 14.0868 18.2884 12.0091 18.2501L11.9999 18.2499L11.9906 18.2501C9.91291 18.2884 7.86799 17.7283 6.09971 16.6367C4.33337 15.5462 2.91752 13.9713 2.02059 12.0993C2.00701 12.068 2 12.0342 2 12C2 11.9658 2.00701 11.932 2.02058 11.9006C2.91752 10.0287 4.33337 8.45375 6.09971 7.36329C7.86798 6.27164 9.9129 5.71158 11.9906 5.74989ZM11.9999 16.25L12.0005 16.25C13.1271 16.2486 14.2071 15.8005 15.0038 15.0039C15.8004 14.2072 16.2485 13.1272 16.2499 12.0006V12C16.2499 11.1594 16.0006 10.3377 15.5336 9.6388C15.0666 8.93989 14.4029 8.39516 13.6263 8.07348C12.8497 7.75181 11.9951 7.66765 11.1707 7.83164C10.3463 7.99562 9.58903 8.4004 8.99466 8.99477C8.40029 9.58914 7.99551 10.3464 7.83152 11.1708C7.66754 11.9953 7.7517 12.8498 8.07337 13.6264C8.39505 14.403 8.93978 15.0667 9.63869 15.5337C10.3376 16.0007 11.1593 16.25 11.9999 16.25Z" fill="#464646" stroke="#464646"/>
<path d="M13.75 12C13.75 12.9665 12.9665 13.75 12 13.75C11.0335 13.75 10.25 12.9665 10.25 12C10.25 11.0335 11.0335 10.25 12 10.25C12.9665 10.25 13.75 11.0335 13.75 12Z" fill="#464646" stroke="#464646"/>
<path d="M3.5 18L20.5 6.5" stroke="#464646"/>
</svg>
