<svg width="32" height="32" viewBox="0 0 32 32" fill="none" xmlns="http://www.w3.org/2000/svg">
<g clip-path="url(#clip0_2061_5769)">
<path d="M16.0244 32C24.8744 32 32.0487 24.8366 32.0487 16C32.0487 7.16344 24.8744 0 16.0244 0C7.17436 0 0 7.16344 0 16C0 24.8366 7.17436 32 16.0244 32Z" fill="#E0E0E0"/>
<path d="M16.024 31.5137C24.7395 31.5137 31.8048 24.4591 31.8048 15.7568C31.8048 7.05457 24.7395 0 16.024 0C7.30849 0 0.243164 7.05457 0.243164 15.7568C0.243164 24.4591 7.30849 31.5137 16.024 31.5137Z" fill="white"/>
<mask id="mask0_2061_5769" style="mask-type:luminance" maskUnits="userSpaceOnUse" x="5" y="5" width="22" height="22">
<path d="M26.2529 13.9088H16.2681V18.0426H22.0154C21.4797 20.6687 19.2392 22.1763 16.2681 22.1763C12.7613 22.1763 9.9363 19.3556 9.9363 15.8541C9.9363 12.3526 12.7613 9.53193 16.2681 9.53193C17.778 9.53193 19.1418 10.0669 20.2133 10.9423L23.3305 7.8298C21.431 6.17631 18.9957 5.15503 16.2681 5.15503C10.3259 5.15503 5.55273 9.92099 5.55273 15.8541C5.55273 21.7872 10.3259 26.5532 16.2681 26.5532C21.6258 26.5532 26.4964 22.6626 26.4964 15.8541C26.4964 15.2219 26.399 14.541 26.2529 13.9088Z" fill="white"/>
</mask>
<g mask="url(#mask0_2061_5769)">
<path d="M4.57812 22.1764V9.53198L12.8582 15.8542L4.57812 22.1764Z" fill="#FBBC05"/>
</g>
<mask id="mask1_2061_5769" style="mask-type:luminance" maskUnits="userSpaceOnUse" x="5" y="5" width="22" height="22">
<path d="M26.2529 13.9088H16.2681V18.0426H22.0154C21.4797 20.6687 19.2392 22.1763 16.2681 22.1763C12.7613 22.1763 9.9363 19.3556 9.9363 15.8541C9.9363 12.3526 12.7613 9.53193 16.2681 9.53193C17.778 9.53193 19.1418 10.0669 20.2133 10.9423L23.3305 7.8298C21.431 6.17631 18.9957 5.15503 16.2681 5.15503C10.3259 5.15503 5.55273 9.92099 5.55273 15.8541C5.55273 21.7872 10.3259 26.5532 16.2681 26.5532C21.6258 26.5532 26.4964 22.6626 26.4964 15.8541C26.4964 15.2219 26.399 14.541 26.2529 13.9088Z" fill="white"/>
</mask>
<g mask="url(#mask1_2061_5769)">
<path d="M4.57812 9.53192L12.8582 15.8541L16.2676 12.8876L27.9571 10.9909V4.18237H4.57812V9.53192Z" fill="#EA4335"/>
</g>
<mask id="mask2_2061_5769" style="mask-type:luminance" maskUnits="userSpaceOnUse" x="5" y="5" width="22" height="22">
<path d="M26.2529 13.9088H16.2681V18.0426H22.0154C21.4797 20.6687 19.2392 22.1763 16.2681 22.1763C12.7613 22.1763 9.9363 19.3556 9.9363 15.8541C9.9363 12.3526 12.7613 9.53193 16.2681 9.53193C17.778 9.53193 19.1418 10.0669 20.2133 10.9423L23.3305 7.8298C21.431 6.17631 18.9957 5.15503 16.2681 5.15503C10.3259 5.15503 5.55273 9.92099 5.55273 15.8541C5.55273 21.7872 10.3259 26.5532 16.2681 26.5532C21.6258 26.5532 26.4964 22.6626 26.4964 15.8541C26.4964 15.2219 26.399 14.541 26.2529 13.9088Z" fill="white"/>
</mask>
<g mask="url(#mask2_2061_5769)">
<path d="M4.57812 22.1763L19.19 10.9909L23.0378 11.4772L27.9571 4.18237V27.5258H4.57812V22.1763Z" fill="#34A853"/>
</g>
<mask id="mask3_2061_5769" style="mask-type:luminance" maskUnits="userSpaceOnUse" x="5" y="5" width="22" height="22">
<path d="M26.2529 13.9088H16.2681V18.0426H22.0154C21.4797 20.6687 19.2392 22.1763 16.2681 22.1763C12.7613 22.1763 9.9363 19.3556 9.9363 15.8541C9.9363 12.3526 12.7613 9.53193 16.2681 9.53193C17.778 9.53193 19.1418 10.0669 20.2133 10.9423L23.3305 7.8298C21.431 6.17631 18.9957 5.15503 16.2681 5.15503C10.3259 5.15503 5.55273 9.92099 5.55273 15.8541C5.55273 21.7872 10.3259 26.5532 16.2681 26.5532C21.6258 26.5532 26.4964 22.6626 26.4964 15.8541C26.4964 15.2219 26.399 14.541 26.2529 13.9088Z" fill="white"/>
</mask>
<g mask="url(#mask3_2061_5769)">
<path d="M27.9573 27.5259L12.8584 15.8542L10.9102 14.3952L27.9573 9.53198V27.5259Z" fill="#4285F4"/>
</g>
</g>
<defs>
<clipPath id="clip0_2061_5769">
<rect width="32" height="32" fill="white"/>
</clipPath>
</defs>
</svg>
